<svg width="24" height="22" viewBox="0 0 24 22" fill="none" xmlns="http://www.w3.org/2000/svg">
<g id="eye-frame">
<g id="eye-icon">
<path id="Vector" d="M11.6743 13.2036C11.5962 13.2036 11.5192 13.2 11.4428 13.193L10.25 14.3858C10.9674 14.6606 11.7491 14.7216 12.5005 14.5616C13.2519 14.4016 13.9409 14.0273 14.4841 13.4841C15.0273 12.9409 15.4016 12.2519 15.5616 11.5005C15.7216 10.7491 15.6606 9.96744 15.3858 9.25L14.193 10.4428C14.2 10.5192 14.2036 10.5962 14.2036 10.6743C14.2038 11.0065 14.1385 11.3355 14.0114 11.6424C13.8844 11.9494 13.6981 12.2283 13.4632 12.4632C13.2283 12.6981 12.9494 12.8844 12.6424 13.0114C12.3355 13.1385 12.0065 13.2038 11.6743 13.2036Z" fill="#6495ED"/>
<path id="Vector_2" d="M21.8108 10.5078C21.017 8.83534 20.0722 7.47133 18.9767 6.4158L17.8276 7.56482C18.7646 8.46024 19.5808 9.63162 20.2865 11.0905C18.4076 14.9793 15.7405 16.8266 12.0956 16.8266C11.0015 16.8266 9.99382 16.6581 9.07243 16.3212L7.82743 17.5662C9.10713 18.1571 10.5299 18.4525 12.0956 18.4525C16.4361 18.4525 19.6745 16.192 21.8108 11.6709C21.8967 11.489 21.9413 11.2904 21.9413 11.0894C21.9413 10.8883 21.8967 10.6897 21.8108 10.5078ZM20.3752 3.26683L19.4125 2.30299C19.3957 2.28619 19.3758 2.27286 19.3539 2.26377C19.3319 2.25468 19.3084 2.25 19.2847 2.25C19.261 2.25 19.2374 2.25468 19.2155 2.26377C19.1936 2.27286 19.1737 2.28619 19.1569 2.30299L16.687 4.77176C15.3252 4.0762 13.7948 3.72843 12.0956 3.72843C7.75516 3.72843 4.51676 5.98898 2.38041 10.5101C2.29454 10.6919 2.25 10.8905 2.25 11.0916C2.25 11.2927 2.29454 11.4913 2.38041 11.6731C3.23389 13.4707 4.26142 14.9116 5.46299 15.9957L3.07325 18.3848C3.0394 18.4187 3.02038 18.4646 3.02038 18.5125C3.02038 18.5604 3.0394 18.6063 3.07325 18.6402L4.03732 19.6043C4.0712 19.6381 4.11713 19.6571 4.16503 19.6571C4.21292 19.6571 4.25886 19.6381 4.29274 19.6043L20.3752 3.52247C20.392 3.50569 20.4053 3.48576 20.4144 3.46383C20.4235 3.4419 20.4282 3.41839 20.4282 3.39465C20.4282 3.37091 20.4235 3.3474 20.4144 3.32546C20.4053 3.30353 20.392 3.28361 20.3752 3.26683ZM3.90476 11.0905C5.78592 7.20169 8.45298 5.3544 12.0956 5.3544C13.3273 5.3544 14.4472 5.56578 15.4632 5.99553L13.8756 7.58312C13.1237 7.18196 12.2629 7.03308 11.4199 7.15843C10.577 7.28379 9.79672 7.67674 9.19413 8.27933C8.59155 8.88192 8.19859 9.66223 8.07323 10.5051C7.94788 11.3481 8.09676 12.2089 8.49792 12.9608L6.61404 14.8447C5.57138 13.9244 4.67258 12.6776 3.90476 11.0905ZM9.47599 11.0905C9.47638 10.6923 9.57071 10.2998 9.7513 9.94484C9.93189 9.58992 10.1937 9.28261 10.5153 9.04787C10.837 8.81313 11.2095 8.65757 11.6026 8.59385C11.9957 8.53012 12.3983 8.56001 12.7776 8.6811L9.5959 11.8628C9.51615 11.6131 9.4757 11.3526 9.47599 11.0905Z" fill="#6495ED"/>
</g>
</g>
</svg>
